<svg xmlns="http://www.w3.org/2000/svg" width="108.383" height="84.839" viewBox="0 0 108.383 84.839">
  <g id="Group_169206" data-name="Group 169206" transform="translate(-4679.001 -22889.5)">
    <g id="Group_169205" data-name="Group 169205" transform="translate(4038.166 -973)">
      <path id="Path_13862" data-name="Path 13862" d="M182.438,117.2V81.546a4.915,4.915,0,0,0-4.909-4.908H92.415a4.915,4.915,0,0,0-4.909,4.908v53.687a4.915,4.915,0,0,0,4.909,4.909h56.376a22.238,22.238,0,1,0,33.647-22.94Zm-11.8-3.419a22.121,22.121,0,0,0-12.473,3.837l-14.877-9.168L178.926,86.37V115.4a22.117,22.117,0,0,0-8.283-1.616ZM92.416,80.151h85.113a1.4,1.4,0,0,1,1.4,1.4v.694l-39.9,24.722a7.672,7.672,0,0,1-8.114,0l-39.9-24.724v-.694a1.4,1.4,0,0,1,1.4-1.4Zm-1.4,6.22,35.629,22.082L91.019,130.418Zm1.4,50.26a1.4,1.4,0,0,1-1.4-1.4v-.692l39.044-24.067a10.917,10.917,0,0,0,9.818,0l15.408,9.5h0a22.026,22.026,0,0,0-6.863,16.66Zm78.226,18.135a18.756,18.756,0,1,1,13.24-5.493A18.733,18.733,0,0,1,170.642,154.767Z" transform="translate(554.829 23787.363)" fill="#d63548" stroke="#d63548" stroke-width="3"/>
      <path id="Path_13863" data-name="Path 13863" d="M452.781,324.156l-9.6,9.6-4.1-4.095a1.208,1.208,0,1,0-1.708,1.708l4.95,4.949a1.208,1.208,0,0,0,1.707,0l10.452-10.452h0a1.207,1.207,0,1,0-1.707-1.707Z" transform="translate(279.536 23592.754)" fill="#d63548" stroke="#d63548" stroke-width="2"/>
    </g>
    <path id="Path_13864" data-name="Path 13864" d="M0,0H90V37.082L69.228,39.4,57.02,58H0Z" transform="translate(4682 22894)" fill="rgba(214,53,72,0.1)"/>
  </g>
</svg>
